<svg xmlns="http://www.w3.org/2000/svg" xmlns:xlink="http://www.w3.org/1999/xlink" width="152" zoomAndPan="magnify" viewBox="0 0 114 90.749999" height="121" preserveAspectRatio="xMidYMid meet" version="1.0"><defs><g/><clipPath id="80ff5c2d3e"><path d="M 0.15625 0 L 113.84375 0 L 113.84375 90.5 L 0.15625 90.5 Z M 0.15625 0 " clip-rule="nonzero"/></clipPath><clipPath id="98ee82bcad"><path d="M 20.207031 59.324219 L 54.273438 59.324219 L 54.273438 66.453125 L 20.207031 66.453125 Z M 20.207031 59.324219 " clip-rule="nonzero"/></clipPath><clipPath id="fb69d35f33"><path d="M 59.304688 22.941406 L 93.316406 22.941406 L 93.316406 30.070312 L 59.304688 30.070312 Z M 59.304688 22.941406 " clip-rule="nonzero"/></clipPath></defs><g clip-path="url(#80ff5c2d3e)"><path fill="#ffffff" d="M 0.15625 0 L 113.84375 0 L 113.84375 90.5 L 0.15625 90.5 Z M 0.15625 0 " fill-opacity="1" fill-rule="nonzero"/></g><g clip-path="url(#98ee82bcad)"><path fill="#000000" d="M 20.207031 59.324219 L 54.277344 59.324219 L 54.277344 66.453125 L 20.207031 66.453125 Z M 20.207031 59.324219 " fill-opacity="1" fill-rule="nonzero"/></g><g clip-path="url(#fb69d35f33)"><path fill="#000000" d="M 59.304688 22.941406 L 93.320312 22.941406 L 93.320312 30.070312 L 59.304688 30.070312 Z M 59.304688 22.941406 " fill-opacity="1" fill-rule="nonzero"/></g><g fill="#000000" fill-opacity="1"><g transform="translate(17.310561, 51.546958)"><g><path d="M 3.570312 0 L 10.289062 0 L 10.289062 -17.9375 L 17.515625 -7.355469 L 22.191406 -7.355469 L 29.417969 -17.898438 L 29.417969 0 L 36.132812 0 L 36.132812 -29.757812 L 30.4375 -29.757812 L 19.894531 -14.324219 L 9.308594 -29.757812 L 3.570312 -29.757812 Z M 3.570312 0 "/></g></g></g><g fill="#000000" fill-opacity="1"><g transform="translate(56.456201, 65.299122)"><g><path d="M 3.570312 0 L 10.289062 0 L 10.289062 -17.9375 L 17.515625 -7.355469 L 22.191406 -7.355469 L 29.417969 -17.898438 L 29.417969 0 L 36.132812 0 L 36.132812 -29.757812 L 30.4375 -29.757812 L 19.894531 -14.324219 L 9.308594 -29.757812 L 3.570312 -29.757812 Z M 3.570312 0 "/></g></g></g></svg>